<svg width="90" height="90" viewBox="0 0 90 90" fill="none" xmlns="http://www.w3.org/2000/svg">
<g clipPath="url(#clip0_414_3636)">
<path d="M82.1359 7.86844H7.86914V82.1352H82.1359V7.86844Z" fill="white"/>
<path d="M89.187 0.810173H0.810059V89.1871H89.187V0.810173Z" stroke="white" strokeWidth="2" strokeMiterlimit="10"/>
<path d="M53.8555 60.296C49.2397 60.296 44.627 60.296 40.0112 60.296C37 60.296 34.8297 58.5555 34.199 55.6153C32.208 46.3096 30.2294 37.0038 28.2476 27.698C28.0034 26.548 27.2521 25.9173 26.0866 25.908C24.6428 25.8956 23.1959 25.9173 21.7522 25.8987C20.5681 25.8833 19.8199 25.1011 19.8817 23.9881C19.9281 23.1534 20.5804 22.4361 21.4183 22.4237C23.23 22.3959 25.0447 22.3465 26.8502 22.4423C29.0947 22.5629 31.1259 24.4735 31.6391 26.7798C31.8308 27.6331 32.3677 28.0608 33.2499 28.0628C43.7861 28.0628 54.3192 28.0628 64.8555 28.0628C67.4926 28.0628 69.5423 29.7509 70.0432 32.32C70.2349 33.3 70.0277 34.2615 69.8608 35.2199C69.0044 40.1387 68.1449 45.0544 67.2855 49.97C67.2607 50.1061 67.236 50.2452 67.2051 50.3781C66.9608 51.4787 66.3951 51.9425 65.2636 51.9425C56.1031 51.9425 46.9457 51.9425 37.7853 51.9425C37.6462 51.9425 37.507 51.9518 37.3679 51.9425C37.1051 51.9239 37.0216 52.0414 37.0773 52.2888C37.3061 53.3244 37.4947 54.3694 37.7729 55.3927C37.9862 56.1842 38.7839 56.7345 39.6186 56.784C39.8443 56.7963 40.07 56.7901 40.2988 56.7901C49.5458 56.7901 58.7928 56.7901 68.0367 56.787C68.6581 56.787 69.2239 56.8922 69.6413 57.3837C70.0741 57.8969 70.2318 58.4874 69.9783 59.1367C69.7124 59.8168 69.1992 60.1909 68.485 60.2837C68.2779 60.3115 68.0676 60.296 67.8574 60.296C63.1922 60.296 58.5238 60.296 53.8586 60.296H53.8555ZM49.3232 31.5626C47.932 31.5626 46.5376 31.5749 45.1464 31.5564C44.7198 31.5502 44.5621 31.6862 44.5652 32.1221C44.5806 33.9678 44.5806 35.8104 44.5652 37.6561C44.5621 38.089 44.726 38.2343 45.1495 38.2343C47.935 38.2219 50.7175 38.2219 53.503 38.2343C53.9328 38.2343 54.0812 38.0797 54.0781 37.653C54.0626 35.8073 54.0626 33.9647 54.0781 32.1191C54.0812 31.68 53.9235 31.5502 53.4969 31.5564C52.1056 31.578 50.7113 31.5626 49.3201 31.5626H49.3232ZM49.3294 48.4428C50.7206 48.4428 52.1149 48.4304 53.5061 48.449C53.939 48.4551 54.0843 48.3067 54.0812 47.877C54.0657 46.0313 54.0657 44.1887 54.0812 42.343C54.0843 41.9071 53.9235 41.7711 53.5 41.7742C50.7144 41.7865 47.932 41.7865 45.1464 41.7742C44.7167 41.7742 44.5652 41.9226 44.5683 42.3523C44.5837 44.198 44.5837 46.0406 44.5683 47.8863C44.5652 48.3284 44.7352 48.4551 45.1557 48.4521C46.5469 48.4335 47.9412 48.4459 49.3325 48.4459L49.3294 48.4428ZM61.6896 38.2281C62.8737 38.2281 64.0578 38.2281 65.2419 38.2281C65.5202 38.2281 65.7768 38.2033 65.8355 37.8633C66.0921 36.3731 66.3889 34.886 66.5806 33.3897C66.7197 32.3169 65.9963 31.5749 64.9204 31.5687C62.6388 31.5595 60.3602 31.5687 58.0786 31.5595C57.6922 31.5595 57.5623 31.6893 57.5654 32.0727C57.5809 33.9338 57.5809 35.7981 57.5654 37.6592C57.5623 38.0921 57.7107 38.2404 58.1374 38.2343C59.3215 38.2157 60.5056 38.2281 61.6896 38.2281ZM36.8485 31.5657C35.6304 31.5657 34.4123 31.5718 33.1973 31.5626C32.8294 31.5595 32.6563 31.6182 32.7552 32.0665C33.1788 33.9493 33.5683 35.8383 33.9579 37.7272C34.0351 38.0982 34.2083 38.2435 34.5947 38.2404C36.5424 38.225 38.4902 38.225 40.4379 38.2404C40.8614 38.2404 41.0253 38.0951 41.0222 37.6654C41.0067 35.8228 41.0067 33.9771 41.0222 32.1345C41.0253 31.7048 40.88 31.5564 40.4472 31.5657C39.2476 31.5873 38.0481 31.5749 36.8454 31.5749L36.8485 31.5657ZM61.3959 41.7803C60.2984 41.7803 59.2009 41.7896 58.1065 41.7773C57.7478 41.7742 57.5654 41.8638 57.5685 42.2719C57.584 44.1702 57.5809 46.0684 57.5685 47.9636C57.5685 48.3315 57.7076 48.449 58.0601 48.4459C59.8718 48.4366 61.6804 48.4335 63.4921 48.4459C63.8538 48.4459 64.0238 48.3222 64.0826 47.9543C64.3979 46.0684 64.7163 44.1825 65.0657 42.3028C65.143 41.8855 65.0224 41.7711 64.6329 41.7742C63.5539 41.7865 62.4749 41.7773 61.3959 41.7773V41.7803ZM41.016 45.1378C41.016 44.198 41.0067 43.2581 41.0191 42.3183C41.0253 41.9597 40.9202 41.7711 40.5183 41.7742C38.7962 41.7865 37.0742 41.7834 35.3522 41.7742C34.9966 41.7742 34.8452 41.87 34.9317 42.2688C35.3491 44.1702 35.751 46.0746 36.1498 47.979C36.2178 48.3006 36.3631 48.449 36.7125 48.4428C37.9646 48.4273 39.2167 48.4242 40.4688 48.4428C40.8738 48.449 41.0284 48.3067 41.0191 47.8987C41.0006 46.9774 41.0129 46.0561 41.0129 45.1317L41.016 45.1378Z" fill="#313131"/>
<path d="M42.7917 67.617C41.2644 67.617 40.068 66.4298 40.0618 64.9056C40.0556 63.4062 41.2737 62.2066 42.8041 62.2097C44.3313 62.2097 45.5401 63.4093 45.537 64.918C45.537 66.4205 44.3159 67.617 42.7948 67.617H42.7917Z" fill="#DA1730"/>
<path d="M60.742 67.6201C59.2147 67.6201 58.0213 66.4267 58.0244 64.9087C58.0275 63.3907 59.2271 62.2036 60.7543 62.2097C62.2723 62.2159 63.4966 63.4278 63.4904 64.9242C63.4842 66.4051 62.2445 67.6232 60.7389 67.6232L60.742 67.6201Z" fill="#DA1730"/>
</g>
<defs>
<clipPath id="clip0_414_3636">
<rect width="90" height="90" fill="white"/>
</clipPath>
</defs>
</svg>
