<svg width="92" height="91" viewBox="0 0 92 91" fill="none" xmlns="http://www.w3.org/2000/svg">
<g id="1 paqueteo 1" clipPath="url(#clip0_410_13186)">
<g id="Capa_1-2">
<path id="Vector" d="M83.3553 8.36944H8.6416V83.0831H83.3553V8.36944Z" fill="white"/>
<path id="Vector_2" d="M90.4533 1.27135H1.54346V90.1812H90.4533V1.27135Z" stroke="white" strokeWidth="2" strokeMiterlimit="10"/>
<path id="Vector_3" d="M69.813 45.7652C69.813 49.0341 69.8192 52.2998 69.813 55.5687C69.8068 58.053 68.7327 59.9739 66.5908 61.2129C60.7816 64.5658 54.9568 67.8907 49.1195 71.1938C47.0928 72.3395 44.9821 72.3488 42.9461 71.2156C39.5589 69.3321 36.2091 67.3864 32.8437 65.4655C30.4902 64.1206 28.1459 62.7602 25.7799 61.4371C23.3765 60.0922 22.1748 58.0935 22.1841 55.3196C22.209 48.8379 22.1935 42.3531 22.1904 35.8715C22.1904 33.3031 23.3703 31.3947 25.5433 30.1369C31.2435 26.8401 36.9718 23.5899 42.6939 20.3304C44.8825 19.0851 47.1084 19.0851 49.2939 20.3241C55.0191 23.5774 60.7442 26.8338 66.4445 30.1276C68.6424 31.3978 69.8161 33.3249 69.813 35.9088C69.8099 39.1932 69.813 42.4777 69.813 45.7621V45.7652ZM47.3917 57.6794C47.3917 61.1538 47.3917 64.6312 47.3917 68.1055C47.3917 68.2456 47.3917 68.3826 47.3917 68.5227C47.3917 68.7718 47.5007 68.8371 47.7186 68.7219C47.8276 68.6659 47.9334 68.6068 48.0393 68.5476C53.6897 65.341 59.3402 62.1313 64.9969 58.9309C66.3822 58.1464 67.0453 56.9821 67.0422 55.3881C67.0329 48.9593 67.0422 42.5275 67.036 36.0987C67.036 35.8465 67.1574 35.4885 66.9426 35.3609C66.6936 35.2115 66.4445 35.5166 66.2172 35.6473C60.1091 39.1777 54.0073 42.7174 47.8961 46.2384C47.51 46.4626 47.3793 46.7116 47.3824 47.1475C47.3979 50.6592 47.3917 54.1677 47.3917 57.6794ZM44.6179 57.7137C44.6179 54.2393 44.6054 50.765 44.6303 47.2907C44.6334 46.7552 44.4778 46.447 44.0046 46.1793C41.4362 44.7223 38.8865 43.2311 36.3305 41.7523C32.7223 39.6633 29.1141 37.5744 25.5059 35.4885C25.0358 35.2177 24.9891 35.2488 24.9705 35.7718C24.9705 35.8403 24.9705 35.9119 24.9705 35.9804C24.9705 42.5119 24.9705 49.0465 24.9705 55.578C24.9705 57.0412 25.6304 58.1433 26.9006 58.8655C32.6102 62.1064 38.323 65.341 44.0357 68.5787C44.5961 68.8963 44.6179 68.8838 44.6179 68.2456C44.6179 64.737 44.6179 61.2254 44.6179 57.7168V57.7137ZM54.3248 39.2804C54.2657 39.0563 54.0695 39.0314 53.9294 38.9504C47.7311 35.3733 41.5296 31.8056 35.3343 28.2223C35.0199 28.0418 34.7864 28.0511 34.4813 28.2285C31.9845 29.6668 29.4753 31.0896 26.9722 32.5185C26.4835 32.7956 26.4866 32.8392 26.9909 33.1318C29.5469 34.6106 32.1028 36.0894 34.6587 37.5681C38.3105 39.682 41.9654 41.7959 45.6172 43.9097C45.8351 44.0343 46.0188 44.1339 46.2834 43.9813C48.8798 42.4683 51.4825 40.9647 54.082 39.461C54.1692 39.4112 54.247 39.3427 54.3279 39.2866L54.3248 39.2804ZM37.7937 26.3357C37.8965 26.5443 38.0739 26.591 38.2202 26.6751C40.9131 28.2285 43.6092 29.7789 46.3021 31.3324C49.8076 33.3529 53.3161 35.3733 56.8185 37.4C57.0769 37.5495 57.2824 37.6148 57.5781 37.4436C60.0656 35.9866 62.5654 34.5483 65.0591 33.1038C65.5105 32.8423 65.5074 32.7863 65.0311 32.5154C59.2997 29.2403 53.5714 25.9653 47.8369 22.6964C46.601 21.9928 45.3526 22.0177 44.1197 22.7182C43.2449 23.2163 42.3701 23.7175 41.4953 24.2156C40.2625 24.9223 39.0297 25.629 37.7937 26.3357Z" fill="#313131"/>
<path id="Vector_4" d="M38.7215 48.0223C38.7215 49.1461 37.607 49.8061 36.6575 49.3205C36.0722 49.0216 35.5118 48.6698 34.939 48.3398C33.7217 47.6362 32.4951 46.9482 31.2965 46.2197C30.3968 45.6718 30.3314 44.6227 31.1128 43.944C31.5829 43.5362 32.0873 43.4926 32.7504 43.8662C34.2447 44.7129 35.7266 45.5784 37.2147 46.4377C37.5136 46.612 37.8187 46.7801 38.1082 46.9731C38.5129 47.244 38.6904 47.6456 38.7215 48.0223Z" fill="#DA1730"/>
</g>
</g>
<defs>
<clipPath id="clip0_410_13186">
<rect width="90.5443" height="90.5443" fill="white" transform="translate(0.727783 0.455688)"/>
</clipPath>
</defs>
</svg>
