<svg width="92" height="92" viewBox="0 0 92 92" fill="none" xmlns="http://www.w3.org/2000/svg">
<g id="Capa_1-2">
<path id="Vector" d="M83.8166 8.18487H8.18628V83.8151H83.8166V8.18487Z" fill="white"/>
<path id="Vector_2" d="M91 1H1V91H91V1Z" stroke="white" stroke-width="2" stroke-miterlimit="10"/>
<path id="Vector_3" d="M71.8 57.9874C71.3588 58.854 70.6435 59.1628 69.6886 59.1313C68.4659 59.0872 67.2369 59.1313 66.0143 59.1156C65.6613 59.1093 65.4754 59.2164 65.343 59.5599C64.3567 62.1376 62.4628 63.6093 59.7369 63.9023C56.9544 64.2017 54.1435 62.5284 53.0972 59.7584C52.9082 59.2605 52.6813 59.1061 52.1613 59.1093C49.4103 59.1345 46.6561 59.1313 43.905 59.1124C43.4764 59.1124 43.259 59.2227 43.1014 59.6544C42.1687 62.2133 39.6792 63.9402 36.9785 63.9465C34.2968 63.9496 31.8231 62.2542 30.8714 59.7112C30.7012 59.2574 30.4869 59.0967 30.0048 59.1093C28.8294 59.1439 27.654 59.1345 26.4817 59.1093C25.7254 59.0967 25.0699 58.5956 24.8745 57.9465C24.6634 57.2469 24.8871 56.5473 25.4638 56.103C25.8105 55.8351 26.2138 55.7437 26.6456 55.7469C27.7706 55.7469 28.8956 55.728 30.0174 55.7563C30.4554 55.7689 30.6603 55.6303 30.8084 55.2049C31.7348 52.5326 34.2874 50.771 37.1109 50.8215C39.7895 50.8687 42.2222 52.6145 43.1266 55.1828C43.2842 55.6271 43.4985 55.7626 43.9554 55.7595C46.6907 55.7374 49.426 55.7374 52.1613 55.7595C52.6308 55.7626 52.864 55.6366 53.0311 55.167C53.9638 52.5925 56.3462 50.8813 59.0058 50.8215C61.8388 50.7584 64.3914 52.5137 65.3493 55.2206C65.4911 55.6208 65.6676 55.7815 66.0962 55.7563C66.7138 55.7217 67.3378 55.7343 67.9586 55.7532C68.3178 55.7626 68.4722 55.646 68.4722 55.2679C68.4628 52.7658 68.4628 50.2668 68.4722 47.7647C68.4722 47.4937 68.3714 47.2857 68.2107 47.0809C67.6308 46.3435 67.0416 45.6061 66.4869 44.8498C66.2537 44.5284 65.9859 44.4212 65.5951 44.4212C61.8199 44.4339 58.0416 44.4275 54.2663 44.4275C52.3252 44.4275 51.8462 43.9423 51.8462 41.9759C51.8462 38.7017 51.8462 35.4307 51.8462 32.1565C51.8462 31.6733 51.6088 31.4318 51.134 31.4318C43.0258 31.4318 34.9208 31.4318 26.8126 31.4318C26.3714 31.4318 25.9397 31.4128 25.5584 31.1513C24.9974 30.7637 24.7296 30.2374 24.8178 29.5568C24.9061 28.8603 25.3031 28.3939 25.9617 28.1576C26.2674 28.0473 26.5888 28.0568 26.9071 28.0599C35.6361 28.0599 44.3619 28.0599 53.0909 28.0599C53.3745 28.0599 53.6582 28.0599 53.9386 28.1355C54.6918 28.3435 55.1739 28.9202 55.2086 29.6986C55.2243 30.0515 55.2369 30.4044 55.2086 30.7542C55.1771 31.1765 55.3472 31.3089 55.76 31.3057C57.6224 31.2899 59.488 31.3467 61.3472 31.2836C62.6203 31.2395 63.4082 31.7343 63.9533 32.8908C65.0563 35.2259 66.2821 37.5042 67.404 39.833C68.0941 41.2637 68.9008 42.5998 69.9187 43.8194C70.5836 44.6166 71.2264 45.436 71.7968 46.3089V57.9906L71.8 57.9874ZM59.7149 41.0526C61.0573 41.0526 62.3966 41.0431 63.739 41.0589C64.1708 41.0652 64.2243 40.9391 64.0353 40.5673C63.1056 38.7458 62.1886 36.9149 61.2842 35.0841C61.1298 34.7689 60.9218 34.6555 60.5752 34.6586C58.9649 34.6744 57.3546 34.6744 55.7443 34.6586C55.3693 34.6555 55.2054 34.7469 55.2086 35.1628C55.2275 36.9559 55.2275 38.7521 55.2086 40.5452C55.2054 40.9486 55.3535 41.0652 55.738 41.062C57.0615 41.0462 58.3882 41.0557 59.7117 41.0557L59.7149 41.0526ZM40.1519 57.3761C40.1519 55.6145 38.7086 54.1776 36.947 54.1902C35.2233 54.1996 33.7769 55.6523 33.7737 57.3761C33.7706 59.0935 35.2201 60.5525 36.947 60.5683C38.6928 60.5872 40.1519 59.1345 40.1519 57.3761ZM56.009 57.3099C55.9901 59.1156 57.405 60.5652 59.1886 60.5683C60.9029 60.5715 62.3525 59.125 62.3682 57.3918C62.384 55.6681 60.947 54.2059 59.2201 54.1902C57.4712 54.1744 56.0248 55.5767 56.009 57.3099Z" fill="#313131"/>
<path id="Vector_4" d="M30.0841 42.8646C28.1429 42.8646 26.1986 42.8709 24.2574 42.8615C23.5547 42.8583 23.0347 42.3478 22.874 41.5632C22.7322 40.8604 23.0284 40.0978 23.5862 39.7323C23.8541 39.559 24.1503 39.5054 24.4497 39.5054C28.2217 39.5054 31.9906 39.4928 35.7627 39.5085C37.0326 39.5148 37.7795 40.8258 37.2123 42.0075C36.9286 42.5999 36.4843 42.8678 35.9108 42.8678C33.9696 42.8615 32.0253 42.8678 30.0841 42.8678V42.8646Z" fill="#DA1730"/>
<path id="Vector_5" d="M28.7905 33.7606C31.0878 33.7606 33.385 33.7574 35.6791 33.7606C36.4228 33.7606 36.9743 34.1104 37.2611 34.7942C37.5321 35.437 37.4092 36.0515 36.9397 36.5683C36.5268 37.0253 35.9722 37.1261 35.3798 37.1261C32.0426 37.1261 28.7086 37.1261 25.3714 37.1261C24.2495 37.1261 23.1245 37.1387 22.0027 37.1198C20.9817 37.1009 20.2695 36.477 20.2033 35.582C20.1277 34.561 20.8493 33.7669 21.8987 33.7606C24.196 33.748 26.4932 33.7574 28.7873 33.7574L28.7905 33.7606Z" fill="#DA1730"/>
<path id="Vector_6" d="M31.5518 48.3603C30.3795 48.3603 29.2041 48.3634 28.0318 48.3603C26.9541 48.354 26.1947 47.6796 26.1789 46.7248C26.1631 45.7731 26.9005 45.0136 27.9625 45.0042C30.3921 44.979 32.8249 44.979 35.2545 45.0042C36.2976 45.0136 37.0098 45.7542 36.9972 46.7059C36.9846 47.6796 36.2472 48.3571 35.1726 48.3634C33.9657 48.3697 32.7587 48.3634 31.5518 48.3634V48.3603Z" fill="#DA1730"/>
</g>
</svg>
