<?xml version="1.0" encoding="UTF-8"?><svg id="Capa_2" xmlns="http://www.w3.org/2000/svg" viewBox="0 0 670.14 195.42"><defs><style>.cls-1{fill:#fff;}</style></defs><g id="Capa_1-2"><path class="cls-1" d="m236.49,56.44l-15.66,34.96-5.02.51-8.43-32.51,5.67-.58,6.23,23.87,11.43-25.67,5.77-.59Z"/><path class="cls-1" d="m256.48,54.4c2.01-.21,3.87,0,5.56.6,1.69.61,3.13,1.53,4.32,2.78,1.19,1.25,2.07,2.75,2.64,4.52.57,1.77.74,3.7.52,5.79l-.33,3.23c-.23,2.09-.82,4.1-1.78,6.02-.96,1.93-2.17,3.64-3.63,5.14-1.46,1.5-3.13,2.74-5,3.73-1.87.99-3.82,1.58-5.83,1.79l-2.05.21c-2.05.21-3.92,0-5.61-.62-1.69-.62-3.12-1.55-4.3-2.78-1.18-1.23-2.05-2.73-2.62-4.5-.57-1.77-.74-3.7-.52-5.79l.33-3.23c.23-2.09.82-4.09,1.78-6.02.96-1.93,2.17-3.65,3.63-5.16,1.46-1.51,3.12-2.76,4.98-3.72,1.86-.97,3.81-1.56,5.86-1.76l2.05-.21Zm7.56,14.25c.15-1.32.04-2.52-.32-3.61-.36-1.09-.91-2.03-1.65-2.81-.74-.78-1.63-1.37-2.69-1.75-1.06-.39-2.22-.51-3.49-.38l-2.05.21c-1.27.13-2.49.5-3.65,1.11-1.16.61-2.2,1.39-3.12,2.34-.92.95-1.68,2.02-2.28,3.21-.6,1.19-.97,2.44-1.12,3.76l-.33,3.23c-.15,1.29-.04,2.48.32,3.59.36,1.11.91,2.05,1.65,2.84.74.78,1.63,1.37,2.69,1.75,1.06.39,2.22.51,3.49.38l2.05-.21c1.27-.13,2.49-.5,3.65-1.11,1.16-.61,2.2-1.39,3.12-2.34.92-.95,1.68-2.03,2.28-3.24.6-1.21.97-2.45,1.12-3.74l.33-3.23Z"/><path class="cls-1" d="m295.15,78.45l-.57,5.45-19.81,2.02,3.57-33.73,5.3-.54-2.99,28.29,14.51-1.48Z"/><path class="cls-1" d="m327.54,80.54l-5.72.58-2.46-9.43-10.69,1.09-4.51,10.14-5.67.58,15.56-34.96,5.07-.52,8.43,32.51Zm-9.51-14.1l-2.44-9.19-4.44,9.89,6.88-.7Z"/><path class="cls-1" d="m368.07,43.05l-3.57,33.73-5.35.54,2.47-23.28-10.37,24.08-4.46.45-5.56-22.75-2.49,23.56-5.3.54,3.57-33.73,7.58-.77,5.51,22.8,10.53-24.43,7.44-.76Z"/><path class="cls-1" d="m391.97,40.61c2.01-.21,3.87,0,5.56.6,1.69.61,3.13,1.53,4.32,2.78,1.19,1.25,2.07,2.75,2.64,4.52.57,1.77.74,3.7.52,5.79l-.33,3.23c-.23,2.09-.82,4.1-1.78,6.02-.96,1.93-2.17,3.64-3.64,5.14-1.46,1.5-3.13,2.74-5,3.73-1.87.99-3.82,1.58-5.83,1.79l-2.05.21c-2.05.21-3.92,0-5.61-.62-1.69-.62-3.12-1.55-4.3-2.78-1.18-1.23-2.05-2.73-2.62-4.5-.57-1.77-.74-3.7-.52-5.79l.33-3.23c.23-2.09.82-4.09,1.78-6.02.96-1.93,2.17-3.65,3.63-5.16,1.46-1.51,3.12-2.76,4.98-3.72,1.86-.97,3.81-1.56,5.86-1.76l2.05-.21Zm7.56,14.25c.15-1.32.04-2.52-.32-3.61-.36-1.09-.91-2.03-1.65-2.81-.74-.78-1.63-1.37-2.69-1.75-1.06-.39-2.22-.51-3.49-.38l-2.05.21c-1.27.13-2.49.5-3.65,1.11-1.16.61-2.2,1.39-3.12,2.34-.92.95-1.68,2.02-2.28,3.21-.6,1.19-.97,2.44-1.12,3.76l-.33,3.23c-.15,1.29-.04,2.48.32,3.59.36,1.11.91,2.05,1.65,2.84.74.78,1.63,1.37,2.69,1.75,1.06.38,2.22.51,3.49.38l2.05-.21c1.27-.13,2.49-.5,3.65-1.11,1.16-.61,2.2-1.39,3.12-2.34.92-.95,1.68-2.03,2.28-3.24.6-1.21.97-2.45,1.12-3.74l.33-3.23Z"/><path class="cls-1" d="m429.33,52.69c1.63.34,2.87,1.16,3.73,2.46.85,1.3,1.19,2.81,1.03,4.54l-.08.63c-.15,1.32-.52,2.58-1.12,3.78-.6,1.2-1.37,2.28-2.3,3.21-.94.94-2,1.71-3.19,2.33-1.19.61-2.44.99-3.74,1.12l-4.42.45c-1.36.14-2.62,0-3.78-.4-1.15-.41-2.13-1.02-2.94-1.85-.8-.82-1.4-1.83-1.79-3.01-.39-1.18-.51-2.47-.37-3.85l.19-1.83,5.39-.55-.19,1.78c-.12,1.28.22,2.35,1.01,3.19.79.84,1.82,1.2,3.09,1.07l4.32-.44c.56-.06,1.1-.22,1.62-.5.52-.28.99-.62,1.4-1.03.41-.41.75-.87,1.01-1.39.26-.52.42-1.07.49-1.65l.09-.53c.08-.71-.06-1.32-.45-1.84-.38-.52-.89-.85-1.54-1.01l-10.4-2.04c-1.57-.38-2.78-1.23-3.62-2.56-.84-1.33-1.18-2.88-1.01-4.64l.03-.15c.15-1.32.52-2.58,1.12-3.78.6-1.2,1.37-2.28,2.3-3.21.94-.94,1.99-1.71,3.17-2.32,1.17-.61,2.41-.98,3.71-1.12l3.81-.39c1.3-.13,2.5,0,3.58.37,1.09.38,2.01.96,2.76,1.72.75.77,1.31,1.7,1.67,2.81.36,1.11.47,2.32.32,3.64l-.27,2.46-5.3.54.23-2.36c.07-.58.02-1.11-.14-1.58-.16-.48-.4-.88-.71-1.22-.32-.33-.71-.59-1.18-.76-.47-.17-.99-.23-1.54-.18l-3.72.38c-.56.06-1.1.22-1.62.5-.52.28-.99.62-1.4,1.03-.41.41-.76.87-1.03,1.39-.28.52-.45,1.07-.51,1.65l-.04.53c-.07.58.06,1.08.37,1.51.31.43.71.71,1.19.86,1.79.36,3.58.72,5.37,1.1,1.79.37,3.58.76,5.38,1.15Z"/><path class="cls-1" d="m257.19,96.4c.53-.05,1.01,0,1.44.15.43.15.8.38,1.1.7.3.31.53.69.67,1.14.15.44.19.93.13,1.47l-.04.3c-.04.31-.12.64-.25.98-.13.34-.3.67-.5,1-.2.33-.44.63-.72.92-.28.29-.57.53-.89.74-.29.18-.58.31-.89.4-.31.09-.61.15-.91.18l-2.95.3-.44,4.17-1.91.19,1.28-12.12,4.88-.5Zm1.42,3.64c.03-.26,0-.49-.06-.71-.07-.22-.18-.4-.33-.55-.15-.15-.32-.27-.53-.34-.21-.08-.44-.1-.69-.08l-2.99.3-.42,4.02,2.99-.3c.25-.03.48-.1.72-.22.23-.12.44-.27.61-.46s.33-.39.45-.62c.12-.23.19-.47.21-.73l.04-.31Z"/><path class="cls-1" d="m270.11,107.13l-2.06.21-.89-3.4-3.86.39-1.63,3.66-2.05.21,5.62-12.61,1.83-.19,3.04,11.73Zm-3.43-5.09l-.88-3.32-1.6,3.57,2.48-.25Z"/><path class="cls-1" d="m281.18,106l-2.4.24-2.45-3.93-2.06.21-.44,4.17-1.91.19,1.27-12.12,4.88-.5c.53-.05,1.01,0,1.44.15.43.15.8.38,1.1.69.3.31.53.69.67,1.14.15.45.19.93.13,1.47l-.04.3c-.04.38-.14.77-.29,1.15-.15.38-.35.74-.6,1.09-.25.34-.54.65-.87.93-.33.28-.7.51-1.1.69l2.66,4.13Zm-6.69-5.44l2.97-.3c.25-.03.48-.1.71-.22s.44-.27.62-.46c.18-.18.33-.39.45-.62.12-.23.19-.47.21-.73l.04-.31c.03-.26,0-.49-.06-.71-.07-.22-.18-.4-.33-.55s-.32-.26-.53-.34-.44-.1-.69-.08l-2.97.3-.42,4.02Z"/><path class="cls-1" d="m292.88,104.81l-2.06.21-.89-3.4-3.86.39-1.63,3.66-2.05.21,5.62-12.61,1.83-.19,3.04,11.73Zm-3.43-5.09l-.88-3.32-1.6,3.57,2.48-.25Z"/><path class="cls-1" d="m312.68,97.33c-.09.87-.35,1.68-.77,2.44-.42.76-.96,1.42-1.61,1.98l1.41,2.2-2.4.24-.83-1.29c-.26.12-.53.22-.81.29-.28.07-.57.13-.86.16l-.74.08c-.74.08-1.41,0-2.02-.22-.61-.22-1.13-.56-1.55-1-.42-.44-.74-.98-.94-1.62-.21-.64-.27-1.33-.19-2.09l.12-1.17c.08-.75.3-1.48.64-2.17s.78-1.32,1.31-1.86,1.13-.99,1.8-1.34c.67-.35,1.38-.56,2.11-.64l.74-.08c.73-.07,1.4,0,2.01.22.61.22,1.13.55,1.56,1,.43.45.75.99.95,1.63s.27,1.33.19,2.09l-.12,1.16Zm-5.65,3.96c.46-.05.9-.18,1.32-.4.42-.22.79-.5,1.13-.85.33-.34.61-.73.82-1.17.22-.43.35-.88.41-1.35l.12-1.17c.05-.48.01-.91-.12-1.3-.13-.39-.33-.73-.59-1.01-.27-.28-.59-.49-.97-.63-.38-.14-.8-.19-1.26-.14l-.74.08c-.46.05-.9.18-1.32.4-.42.22-.79.5-1.13.85s-.61.73-.82,1.16c-.22.43-.35.88-.4,1.36l-.12,1.16c-.05.46-.02.9.11,1.3.13.4.33.74.6,1.02.27.28.59.49.97.63.38.14.8.19,1.26.14l.74-.08Z"/><path class="cls-1" d="m324.38,89.56l-.83,7.86c-.06.59-.24,1.16-.51,1.71-.28.55-.63,1.04-1.05,1.46-.42.43-.9.78-1.43,1.06-.54.28-1.1.45-1.69.51l-.42.04c-.58.06-1.12,0-1.61-.17-.49-.17-.91-.43-1.25-.79-.34-.35-.59-.78-.76-1.28-.16-.51-.22-1.05-.15-1.64l.83-7.86,1.91-.19-.83,7.86c-.03.32,0,.62.08.89.09.27.23.5.42.7.19.19.42.34.69.43s.56.12.87.09l.42-.04c.31-.03.62-.12.91-.27.29-.15.56-.34.79-.58.23-.24.42-.5.58-.8s.25-.61.29-.93l.83-7.86,1.91-.19Z"/><path class="cls-1" d="m334.78,98.6l-.21,1.97-8.91.91,1.29-12.17,8.61-.88-.21,1.97-6.69.68-.32,2.89,5.02-.51-.21,1.96-5.02.51-.35,3.39,7-.71Z"/><path class="cls-1" d="m350.41,97.01l-.21,1.97-7.15.73,1.29-12.17,1.91-.19-1.08,10.21,5.24-.53Z"/><path class="cls-1" d="m359.35,96.1l-.21,1.97-7.15.73,1.29-12.17,1.91-.19-1.08,10.21,5.24-.53Z"/><path class="cls-1" d="m370.06,95.01l-.21,1.97-8.91.91,1.29-12.17,8.61-.88-.21,1.97-6.69.68-.32,2.89,5.02-.51-.21,1.96-5.02.51-.35,3.39,7-.71Z"/><path class="cls-1" d="m376.99,91.64l.21-2.07,5.03-.51-.71,6.73-2,.2.09-.94c-.44.32-.91.58-1.41.79-.5.2-1.02.34-1.55.39l-.6.06c-.74.08-1.41,0-2.02-.22-.61-.22-1.13-.56-1.55-1-.42-.44-.74-.98-.95-1.62-.21-.64-.27-1.33-.19-2.09l.12-1.17c.08-.75.3-1.48.64-2.17.35-.7.78-1.32,1.31-1.86s1.12-.99,1.8-1.34c.67-.35,1.37-.56,2.11-.64l.6-.06c.55-.06,1.07-.02,1.55.11s.93.33,1.32.6c.4.27.74.62,1.04,1.03.3.41.53.88.69,1.4l-1.99.77c-.22-.62-.58-1.1-1.09-1.45-.5-.34-1.09-.48-1.75-.42l-.6.06c-.46.05-.9.18-1.32.4-.42.22-.79.5-1.13.84-.33.34-.61.73-.82,1.16-.22.43-.35.88-.41,1.36l-.12,1.17c-.05.46-.02.9.11,1.29.13.4.33.74.6,1.02.27.28.59.49.97.63.38.14.8.19,1.26.14l.6-.06c.64-.06,1.22-.28,1.76-.65.53-.37.97-.84,1.31-1.41l.09-.78-3.04.31Z"/><path class="cls-1" d="m394.12,82.47l-.83,7.86c-.06.59-.24,1.16-.51,1.71-.28.55-.63,1.04-1.05,1.47-.42.43-.9.78-1.43,1.06-.54.28-1.1.45-1.69.51l-.42.04c-.58.06-1.12,0-1.61-.17-.49-.17-.91-.43-1.25-.79-.34-.35-.59-.78-.76-1.28-.16-.51-.22-1.05-.15-1.64l.83-7.86,1.91-.19-.83,7.86c-.03.32,0,.62.08.89.09.27.23.51.42.7.19.19.42.34.69.43.27.09.56.12.87.09l.42-.04c.31-.03.62-.12.91-.27s.56-.34.79-.58c.23-.24.42-.5.58-.8.16-.3.25-.61.29-.93l.83-7.86,1.91-.19Z"/><path class="cls-1" d="m404.52,91.51l-.21,1.97-8.91.91,1.29-12.17,8.61-.88-.21,1.97-6.69.68-.32,2.89,5.02-.51-.21,1.97-5.02.51-.35,3.39,7-.71Z"/><path class="cls-1" d="m413.07,86.27c.59.12,1.04.42,1.35.89.31.47.43,1.01.37,1.64l-.03.23c-.05.48-.19.93-.4,1.37s-.49.82-.83,1.16c-.34.34-.72.62-1.15.84-.43.22-.88.36-1.35.41l-1.59.16c-.49.05-.95,0-1.36-.15-.42-.15-.77-.37-1.06-.67-.29-.3-.51-.66-.64-1.09-.14-.43-.18-.89-.13-1.39l.07-.66,1.95-.2-.07.64c-.04.46.08.85.36,1.15.29.3.66.43,1.12.38l1.56-.16c.2-.02.4-.08.58-.18.19-.1.36-.22.5-.37.15-.15.27-.31.36-.5.09-.19.15-.38.18-.59l.03-.19c.03-.26-.02-.48-.16-.66-.14-.19-.32-.31-.55-.37l-3.75-.74c-.57-.14-1-.45-1.31-.92-.3-.48-.43-1.04-.37-1.67v-.05c.06-.48.2-.93.42-1.37.22-.43.49-.82.83-1.16.34-.34.72-.62,1.14-.84.42-.22.87-.36,1.34-.4l1.38-.14c.47-.05.9,0,1.29.14.39.14.72.34,1,.62.27.28.47.62.6,1.01.13.4.17.84.12,1.31l-.1.89-1.91.19.08-.85c.02-.21,0-.4-.05-.57-.06-.17-.14-.32-.26-.44-.11-.12-.26-.21-.43-.27-.17-.06-.36-.08-.56-.06l-1.34.14c-.2.02-.4.08-.58.18-.19.1-.36.22-.5.37-.15.15-.27.32-.37.5-.1.19-.16.39-.19.6v.19c-.04.21,0,.39.12.55.11.15.25.26.43.31.65.13,1.29.26,1.94.4.65.14,1.29.27,1.94.41Z"/><path class="cls-1" d="m232.13,123.02l-3.57,28.41-4.93.5,2.47-19.6-9.76,20.34-4.12.42-4.93-19.09-2.49,19.84-4.89.5,3.56-28.41,6.99-.71,4.89,19.13,9.9-20.64,6.86-.7Z"/><path class="cls-1" d="m199.1,155.14l3.75-29.86,8.17-.83,4.56,17.82,9.22-19.23,8.15-.83-3.75,29.86-6.39.65,2.03-16.12-8.03,16.73-5.13.52-4.15-16.06-2.09,16.69-6.35.65Zm5.03-28.55l-3.38,26.95,3.43-.35,2.88-22.99,5.72,22.12,3.11-.32,11.49-23.95-2.91,23.08,3.47-.35,3.38-26.95-5.57.57-10.58,22.05-5.23-20.44-5.81.59Z"/><path class="cls-1" d="m259.96,148.23l-5.27.54-2.19-7.91-9.86,1-4.24,8.56-5.23.53,14.63-29.53,4.67-.48,7.5,27.28Zm-4.02-34.59l-4.38,4.93-3.12.32,2.88-4.78,4.63-.47Zm-4.63,22.81l-2.17-7.71-4.18,8.36,6.35-.65Z"/><path class="cls-1" d="m232.34,151.53l15.13-30.55,5.35-.54,7.76,28.22-6.25.64-2.19-7.91-9.19.94-4.24,8.56-6.37.65Zm15.76-29.65l-14.12,28.51,4.1-.42,4.24-8.56,10.53-1.07,2.19,7.91,4.3-.44-7.24-26.34-4,.41Zm-3.96,15.79l5.13-10.26,2.67,9.47-7.79.79Zm4.87-7.59l-3.23,6.46,4.9-.5-1.68-5.96Zm-1.49-10.6l3.5-5.81,6.1-.62-5.33,6-4.27.43Zm4.07-4.9l-2.25,3.75,1.98-.2,3.43-3.87-3.16.32Z"/><path class="cls-1" d="m282.27,131.26c1.5.27,2.64.95,3.41,2.04.77,1.08,1.08,2.35.91,3.81l-.08.53c-.15,1.11-.5,2.17-1.06,3.19-.56,1.02-1.28,1.93-2.15,2.72-.87.8-1.86,1.46-2.96,1.98-1.1.53-2.25.85-3.45.97l-4.07.41c-1.26.13-2.42.03-3.48-.31-1.06-.33-1.96-.84-2.69-1.53-.73-.69-1.27-1.53-1.62-2.52-.35-.99-.45-2.07-.31-3.23l.19-1.54,4.97-.51-.19,1.5c-.12,1.08.18,1.97.9,2.67.72.7,1.67.99,2.84.87l3.99-.41c.51-.05,1.01-.2,1.49-.43.48-.24.91-.53,1.3-.87.38-.35.7-.74.94-1.18.24-.44.4-.9.47-1.39l.08-.45c.08-.6-.05-1.11-.39-1.54-.35-.43-.82-.71-1.41-.84l-9.57-1.63c-1.45-.31-2.55-1.02-3.31-2.13-.76-1.11-1.06-2.41-.89-3.89l.03-.12c.15-1.11.5-2.17,1.06-3.19.56-1.02,1.28-1.93,2.15-2.72.87-.8,1.85-1.46,2.94-1.98,1.09-.52,2.23-.85,3.43-.97l3.52-.36c1.2-.12,2.3-.03,3.3.29,1,.31,1.84.79,2.53,1.43.69.64,1.19,1.42,1.52,2.35.32.93.41,1.95.27,3.06l-.27,2.07-4.89.5.23-1.99c.07-.49.03-.93-.11-1.33-.14-.4-.36-.74-.65-1.02-.29-.28-.65-.49-1.08-.63-.43-.14-.91-.19-1.42-.14l-3.43.35c-.51.05-1.01.2-1.49.43-.48.24-.91.53-1.3.87-.38.35-.7.74-.96,1.18-.26.44-.42.9-.49,1.39l-.04.45c-.07.49.04.91.32,1.27.28.36.65.6,1.09.71,1.65.29,3.29.58,4.94.88,1.65.3,3.3.61,4.95.92Z"/><path class="cls-1" d="m271.14,147.67c-.7-.05-1.38-.17-2.01-.37-1.16-.36-2.15-.93-2.96-1.69-.82-.76-1.42-1.71-1.81-2.81-.38-1.09-.5-2.29-.34-3.56l.26-2.11,6.44-.66-.31,2.4c-.09.84.13,1.52.69,2.07.57.55,1.31.77,2.27.67l3.99-.41c.43-.04.85-.17,1.25-.36.42-.2.8-.46,1.13-.76.32-.29.59-.63.79-.99.2-.36.33-.74.38-1.14l.09-.49c.05-.37-.03-.68-.25-.96-.24-.3-.57-.49-1-.59l-9.54-1.62c-1.65-.35-2.92-1.17-3.78-2.43-.86-1.25-1.2-2.73-1.02-4.38l.05-.22c.14-1.11.53-2.27,1.13-3.37.6-1.08,1.37-2.06,2.29-2.91.92-.84,1.97-1.54,3.11-2.1,1.16-.56,2.4-.91,3.67-1.04l3.52-.36c1.29-.13,2.5-.02,3.59.31,1.1.34,2.04.88,2.8,1.58.77.72,1.34,1.6,1.71,2.64.36,1.03.46,2.17.3,3.39l-.34,2.63-6.34.64.33-2.87c.05-.39.03-.72-.08-1.01-.11-.29-.26-.54-.47-.74-.21-.2-.48-.36-.81-.47-.34-.11-.71-.14-1.12-.1l-3.43.35c-.43.04-.85.17-1.25.36-.42.21-.8.46-1.13.76-.33.3-.61.64-.82,1.01-.21.36-.34.73-.4,1.13l-.04.42c-.04.32.01.56.17.76.18.23.42.38.71.46,1.59.27,3.24.57,4.89.87,1.65.3,3.3.61,4.95.92,1.68.31,2.98,1.09,3.86,2.32.88,1.23,1.23,2.68,1.04,4.31l-.08.55c-.16,1.18-.54,2.34-1.14,3.44-.6,1.08-1.37,2.06-2.29,2.91-.92.84-1.97,1.55-3.14,2.1-1.17.56-2.41.91-3.69,1.04l-4.07.41c-.6.06-1.18.07-1.75.04Zm-5.59-9.22l-.12.98c-.13,1.05-.04,2.03.27,2.91.31.88.79,1.63,1.43,2.23.65.61,1.47,1.07,2.42,1.37.96.3,2.03.4,3.19.28l4.07-.41c1.12-.11,2.2-.42,3.22-.91,1.03-.49,1.97-1.12,2.79-1.87.81-.74,1.48-1.59,2-2.54.52-.94.84-1.93.98-2.94l.08-.54c.15-1.27-.11-2.35-.78-3.3-.67-.93-1.64-1.51-2.96-1.75h0c-1.65-.31-3.29-.62-4.94-.92-1.65-.3-3.29-.59-4.94-.88-.66-.17-1.15-.49-1.53-.97-.4-.51-.56-1.13-.47-1.81l.04-.42c.08-.61.28-1.17.58-1.69.29-.5.66-.95,1.1-1.35.43-.39.92-.72,1.46-.98.56-.27,1.14-.44,1.74-.5l3.43-.35c.61-.06,1.19,0,1.72.17.53.18.99.44,1.35.79.37.36.64.79.82,1.29.18.51.23,1.07.15,1.67l-.13,1.09,3.44-.35.19-1.51c.13-.99.05-1.91-.23-2.73-.29-.81-.73-1.51-1.33-2.06-.6-.56-1.36-.99-2.25-1.27-.9-.28-1.92-.37-3.01-.26l-3.52.36c-1.11.11-2.18.42-3.19.9-1.02.49-1.95,1.12-2.77,1.87-.81.74-1.48,1.59-2,2.54-.52.94-.84,1.92-.98,2.94l-.03.15c-.14,1.3.11,2.41.78,3.37.66.96,1.6,1.56,2.87,1.83l9.54,1.62c.78.17,1.39.53,1.84,1.1.47.59.66,1.29.55,2.09l-.09.48c-.07.54-.26,1.09-.54,1.61-.28.51-.65.96-1.09,1.36-.43.39-.93.72-1.46.98-.55.27-1.14.44-1.74.5l-3.99.41c-1.39.15-2.54-.22-3.41-1.07-.88-.86-1.26-1.96-1.11-3.27l.08-.62-3.51.36Z"/><path class="cls-1" d="m331.65,140.94l-6.13.62-6.17-9.11-5.27.54-1.22,9.74-4.89.5,3.53-28.28,12.48-1.27c1.34-.14,2.57-.03,3.67.31,1.1.34,2.04.87,2.8,1.6.77.72,1.33,1.6,1.7,2.63.37,1.03.47,2.17.3,3.41l-.1.69c-.11.89-.37,1.79-.77,2.68-.4.9-.92,1.74-1.56,2.54-.64.8-1.39,1.53-2.25,2.19-.86.66-1.8,1.2-2.82,1.63l6.69,9.57Zm-16.96-12.54l7.59-.77c.63-.06,1.24-.24,1.83-.53.59-.29,1.12-.65,1.58-1.08.46-.43.85-.92,1.17-1.46.32-.54.51-1.11.56-1.7l.1-.73c.08-.6.03-1.15-.15-1.65-.18-.5-.46-.93-.82-1.28-.37-.35-.82-.61-1.36-.78-.54-.17-1.12-.23-1.75-.16l-7.59.77-1.17,9.37Z"/><path class="cls-1" d="m307.15,144.03l3.72-29.74,13.05-1.33c1.43-.15,2.76-.03,3.95.34,1.21.37,2.24.97,3.08,1.76.85.8,1.48,1.78,1.88,2.91.4,1.13.51,2.39.34,3.75l-.11.71c-.12.94-.39,1.91-.82,2.87-.42.95-.98,1.86-1.66,2.7-.67.84-1.47,1.62-2.37,2.31-.67.52-1.4.98-2.18,1.36l6.9,9.87-7.77.79-6.17-9.11-4.28.44-1.22,9.74-6.35.65Zm4.99-28.43l-3.35,26.83,3.43-.35,1.22-9.74,6.27-.64,6.17,9.11,4.5-.46-6.51-9.31.82-.34c.96-.4,1.86-.92,2.66-1.53.81-.62,1.52-1.32,2.13-2.07.6-.75,1.09-1.55,1.47-2.39.37-.83.61-1.66.71-2.48l.11-.71c.14-1.11.05-2.15-.27-3.07-.33-.92-.83-1.71-1.51-2.35-.68-.64-1.53-1.13-2.53-1.43-1.01-.31-2.15-.41-3.39-.28l-11.91,1.21Zm1.73,13.6l1.35-10.83,8.16-.83c.72-.07,1.41,0,2.04.19.64.2,1.19.52,1.63.95.45.43.79.95,1,1.56.22.61.28,1.28.18,1.99l-.1.73c-.06.67-.28,1.34-.66,1.97-.35.59-.79,1.14-1.3,1.62-.51.48-1.1.89-1.76,1.2-.66.32-1.36.52-2.07.59l-8.48.86Zm2.63-9.52l-.99,7.92,6.7-.68c.54-.05,1.08-.21,1.59-.46.52-.25,1-.58,1.4-.96.41-.39.76-.83,1.05-1.31.27-.45.42-.91.47-1.4l.1-.76c.07-.48.03-.92-.11-1.31-.14-.4-.35-.73-.64-1-.29-.27-.65-.48-1.08-.62-.44-.14-.93-.19-1.46-.13l-7.02.71Z"/><path class="cls-1" d="m361.54,137.89l-5.27.54-2.19-7.91-9.86,1-4.24,8.56-5.23.53,14.63-29.53,4.67-.48,7.5,27.28Zm-3.82-35.15l-4.89,5.51-3.49.36,3.21-5.34,5.17-.53Zm-4.83,23.37l-2.17-7.71-4.18,8.36,6.35-.65Z"/><path class="cls-1" d="m333.82,141.26l15.19-30.67,5.42-.55,7.79,28.33-6.36.65-2.19-7.91-9.11.93-4.24,8.56-6.5.66Zm15.9-29.66l-14.06,28.39,3.96-.4,4.24-8.56,10.61-1.08,2.19,7.91,4.19-.43-7.21-26.23-3.92.4Zm-4.1,15.8l5.24-10.48,2.72,9.67-7.96.81Zm4.95-7.5l-3.11,6.23,4.73-.48-1.62-5.75Zm-2.27-10.64l3.91-6.5,6.82-.69-5.95,6.7-4.77.49Zm4.55-5.48l-2.52,4.19,2.21-.22,3.84-4.32-3.53.36Z"/><path class="cls-1" d="m382.17,107.75c1.34-.14,2.57-.03,3.67.31,1.1.34,2.04.87,2.81,1.6.77.72,1.33,1.6,1.7,2.63.36,1.03.47,2.17.3,3.41l-.1.69c-.1.73-.32,1.49-.66,2.29-.34.8-.77,1.57-1.3,2.34-.53.76-1.15,1.48-1.86,2.15-.71.67-1.48,1.25-2.29,1.74-.74.42-1.5.74-2.29.95-.79.21-1.57.36-2.34.44l-7.55.77-1.22,9.74-4.89.5,3.53-28.28,12.48-1.27Zm3.55,8.45c.08-.6.03-1.15-.15-1.65-.18-.5-.46-.93-.82-1.28-.37-.35-.82-.61-1.36-.78-.54-.17-1.12-.23-1.75-.16l-7.63.78-1.17,9.37,7.63-.78c.63-.06,1.24-.24,1.83-.53.59-.29,1.12-.65,1.58-1.08.46-.43.85-.92,1.17-1.46.32-.54.51-1.11.56-1.7l.1-.73Z"/><path class="cls-1" d="m365.34,138.11l3.72-29.74,13.05-1.33c1.43-.15,2.76-.03,3.95.34,1.21.37,2.24.97,3.09,1.76.85.8,1.48,1.78,1.88,2.91.4,1.13.52,2.39.34,3.75l-.11.71c-.11.78-.34,1.61-.7,2.46-.36.84-.82,1.67-1.37,2.46-.55.8-1.21,1.56-1.96,2.26s-1.56,1.32-2.42,1.83c-.8.46-1.62.8-2.46,1.03-.82.22-1.65.38-2.45.46l-6.98.71-1.22,9.74-6.35.65Zm4.99-28.43l-3.35,26.83,3.43-.35,1.22-9.74,8.11-.83c.73-.07,1.48-.21,2.22-.42.72-.2,1.44-.49,2.12-.88.76-.45,1.49-1,2.16-1.63.67-.64,1.27-1.33,1.76-2.04.5-.72.91-1.46,1.23-2.21.31-.74.52-1.44.6-2.11l.1-.7c.14-1.11.05-2.15-.27-3.07-.33-.92-.83-1.71-1.51-2.35-.68-.64-1.53-1.13-2.53-1.43-1-.31-2.14-.41-3.39-.28l-11.91,1.21Zm1.69,13.61l1.35-10.83,8.2-.83c.72-.07,1.41,0,2.04.19.64.21,1.19.52,1.63.95.45.43.79.95,1,1.55.22.61.28,1.28.18,1.99l-.1.73c-.06.67-.28,1.34-.66,1.97-.35.6-.79,1.14-1.3,1.62-.51.48-1.1.89-1.76,1.21-.66.32-1.36.52-2.07.59l-8.53.87Zm2.63-9.52l-.99,7.92,6.74-.69c.54-.06,1.08-.21,1.59-.46.52-.25.99-.58,1.4-.96.41-.39.76-.83,1.05-1.31.26-.45.42-.92.47-1.4l.1-.76c.07-.48.03-.92-.11-1.31-.14-.4-.35-.73-.64-1-.29-.28-.65-.48-1.08-.62-.44-.14-.93-.18-1.46-.13l-7.07.72Z"/><path class="cls-1" d="m393.49,134.64l3.56-28.41,5.06-.52-3.57,28.41-5.06.51Z"/><path class="cls-1" d="m392.67,135.45l3.75-29.86,6.52-.66-3.75,29.86-6.52.66Zm5.03-28.55l-3.38,26.95,3.6-.37,3.38-26.95-3.6.37Z"/><path class="cls-1" d="m418.19,104.09c2.09-.21,4-.03,5.75.54,1.75.57,3.24,1.43,4.46,2.57,1.23,1.14,2.13,2.53,2.7,4.17.57,1.64.74,3.43.5,5.38-.24,1.89-.83,3.74-1.78,5.53-.94,1.79-2.17,3.41-3.67,4.84-1.5,1.43-3.23,2.63-5.18,3.59-1.95.96-4.04,1.55-6.27,1.78l-9.31.95,3.56-28.41,9.22-.94Zm-2.99,23.82c1.43-.15,2.8-.54,4.1-1.18,1.31-.64,2.48-1.44,3.53-2.4,1.04-.96,1.91-2.05,2.59-3.27.68-1.22,1.1-2.49,1.26-3.81.18-1.33.07-2.54-.33-3.65-.4-1.11-1.01-2.05-1.83-2.84-.82-.78-1.81-1.36-2.99-1.74-1.18-.37-2.48-.49-3.91-.34l-4.33.44-2.42,19.24,4.33-.44Z"/><path class="cls-1" d="m404.59,134.23l3.75-29.86,9.79-1c2.18-.22,4.21-.03,6.05.57,1.84.6,3.43,1.52,4.73,2.73,1.31,1.22,2.28,2.72,2.89,4.46.6,1.74.79,3.65.54,5.7-.25,1.98-.87,3.92-1.85,5.78-.98,1.85-2.26,3.54-3.81,5.02-1.55,1.48-3.35,2.73-5.36,3.72-2.02.99-4.21,1.61-6.52,1.85l-10.2,1.04Zm5.03-28.55l-3.38,26.95,8.41-.86c2.14-.22,4.16-.79,6.03-1.71,1.88-.92,3.56-2.09,5-3.47,1.44-1.37,2.62-2.94,3.53-4.66.9-1.71,1.47-3.49,1.7-5.29.22-1.82.06-3.52-.47-5.05-.53-1.52-1.38-2.83-2.51-3.88-1.15-1.07-2.56-1.88-4.2-2.41-1.65-.54-3.48-.71-5.46-.51l-8.65.88Zm.44,23.47l2.6-20.69,4.9-.5c1.52-.15,2.93-.03,4.2.37,1.28.41,2.38,1.05,3.27,1.9.89.86,1.57,1.91,2,3.11.44,1.21.56,2.56.36,3.99-.16,1.4-.62,2.77-1.34,4.07-.72,1.28-1.64,2.44-2.73,3.44-1.09,1-2.33,1.85-3.7,2.52-1.38.67-2.84,1.09-4.35,1.25l-5.23.53Zm3.88-19.38l-2.24,17.78,3.44-.35c1.34-.14,2.64-.51,3.86-1.11,1.24-.61,2.37-1.38,3.36-2.29.98-.9,1.81-1.95,2.45-3.09.63-1.13,1.03-2.32,1.17-3.55.17-1.22.07-2.33-.29-3.33-.36-1-.92-1.86-1.65-2.57-.73-.7-1.65-1.23-2.71-1.57-1.08-.34-2.3-.45-3.62-.31l-3.77.38Z"/><path class="cls-1" d="m453.31,100.51c1.86-.19,3.56-.04,5.12.46,1.55.5,2.87,1.26,3.96,2.3,1.09,1.04,1.89,2.3,2.4,3.78.51,1.48.65,3.11.43,4.86l-.33,2.72c-.23,1.76-.79,3.45-1.69,5.08-.9,1.63-2.03,3.08-3.39,4.35-1.36,1.27-2.9,2.33-4.64,3.18-1.73.84-3.53,1.36-5.39,1.55l-1.89.19c-1.89.19-3.61.03-5.16-.48-1.55-.51-2.87-1.28-3.94-2.3-1.07-1.03-1.86-2.28-2.38-3.76-.51-1.48-.66-3.1-.43-4.86l.33-2.72c.23-1.76.79-3.45,1.69-5.08.9-1.63,2.03-3.08,3.39-4.37,1.36-1.29,2.9-2.34,4.62-3.17,1.72-.83,3.52-1.34,5.41-1.53l1.89-.19Zm6.85,11.92c.15-1.11.06-2.12-.27-3.04-.32-.91-.82-1.7-1.5-2.35-.67-.65-1.49-1.14-2.47-1.45-.97-.31-2.04-.41-3.21-.29l-1.89.19c-1.17.12-2.29.44-3.37.96-1.07.52-2.04,1.19-2.89,2-.86.81-1.57,1.72-2.13,2.72-.56,1.01-.92,2.06-1.06,3.17l-.33,2.72c-.15,1.08-.06,2.09.26,3.02.33.93.83,1.72,1.5,2.37.67.65,1.5,1.14,2.47,1.45.97.32,2.04.41,3.21.29l1.89-.19c1.17-.12,2.29-.44,3.37-.96,1.07-.52,2.04-1.19,2.89-2,.86-.81,1.56-1.72,2.13-2.74.56-1.02.92-2.07,1.07-3.15l.33-2.72Z"/><path class="cls-1" d="m445.45,129.75c-1.04-.07-2.02-.26-2.95-.56-1.65-.54-3.07-1.37-4.21-2.47-1.15-1.1-2.01-2.46-2.56-4.05-.55-1.58-.7-3.33-.46-5.19l.33-2.71c.24-1.85.83-3.64,1.78-5.34.93-1.68,2.12-3.21,3.52-4.54,1.4-1.33,3.02-2.44,4.8-3.3,1.79-.86,3.69-1.4,5.65-1.6l1.89-.19c1.95-.2,3.76-.03,5.41.49,1.65.53,3.08,1.36,4.24,2.46,1.17,1.11,2.03,2.48,2.58,4.07.55,1.58.7,3.33.46,5.19l-.33,2.71c-.24,1.85-.84,3.64-1.78,5.34-.93,1.68-2.12,3.21-3.53,4.53-1.4,1.32-3.02,2.43-4.81,3.3-1.8.88-3.69,1.42-5.63,1.62l-1.89.19c-.87.09-1.7.11-2.51.05Zm10.19-28.57c-.73-.05-1.48-.03-2.26.05l-1.89.19c-1.79.18-3.53.68-5.17,1.46-1.65.79-3.14,1.82-4.43,3.05-1.3,1.23-2.39,2.64-3.26,4.2-.85,1.54-1.4,3.16-1.61,4.82l-.33,2.71c-.21,1.65-.08,3.17.4,4.54.47,1.37,1.21,2.54,2.19,3.48.99.95,2.22,1.67,3.67,2.14,1.45.48,3.09.63,4.87.44l1.89-.19c1.77-.18,3.5-.68,5.15-1.48,1.66-.81,3.16-1.84,4.46-3.05,1.3-1.22,2.39-2.62,3.26-4.18.85-1.54,1.4-3.16,1.61-4.82l.33-2.71c.21-1.65.08-3.17-.4-4.54-.47-1.37-1.22-2.54-2.22-3.5-1-.96-2.24-1.68-3.68-2.14-.8-.26-1.66-.42-2.56-.48Zm-8.7,23.77c-.67-.04-1.3-.16-1.89-.36-1.07-.35-1.99-.89-2.74-1.62-.75-.73-1.31-1.62-1.68-2.65-.36-1.03-.46-2.16-.3-3.35l.33-2.71c.16-1.2.54-2.36,1.15-3.44.6-1.07,1.36-2.04,2.26-2.89.9-.85,1.94-1.56,3.07-2.12,1.15-.56,2.36-.91,3.61-1.03l1.89-.19c1.26-.13,2.44-.02,3.51.32,1.07.35,2,.89,2.74,1.62.75.73,1.31,1.61,1.67,2.63.36,1.02.46,2.15.3,3.37l-.33,2.71c-.16,1.18-.55,2.32-1.15,3.41-.59,1.08-1.36,2.06-2.26,2.92-.91.85-1.94,1.57-3.07,2.12-1.14.56-2.36.9-3.61,1.03l-1.89.19c-.56.06-1.09.07-1.61.03Zm7.21-18.96c-.44-.03-.9-.02-1.37.03l-1.89.19c-1.08.11-2.13.41-3.13.9-1.01.49-1.92,1.12-2.72,1.87-.8.75-1.47,1.61-1.99,2.55-.52.92-.84,1.9-.98,2.92l-.33,2.71c-.13.98-.06,1.88.23,2.7.29.82.73,1.52,1.32,2.09.59.57,1.33,1.01,2.19,1.28.87.28,1.85.37,2.92.26l1.89-.19c1.08-.11,2.14-.41,3.13-.9,1-.49,1.92-1.12,2.72-1.87.8-.75,1.47-1.62,1.99-2.57.52-.94.85-1.92.98-2.91l.33-2.71c.13-.99.05-1.9-.23-2.71-.29-.81-.73-1.51-1.32-2.08-.59-.57-1.33-1-2.19-1.29-.48-.16-1-.25-1.55-.29Z"/><rect class="cls-1" x="218.82" y="104.26" width="25.82" height="1.11" transform="translate(-9.4 23.95) rotate(-5.8)"/><rect class="cls-1" x="202.66" y="108.71" width="39.04" height="1.11" transform="translate(-9.9 23.01) rotate(-5.8)"/><rect class="cls-1" x="419.6" y="83.28" width="25.82" height="1.11" transform="translate(-7.28 57.86) rotate(-7.59)"/><rect class="cls-1" x="423.32" y="85.4" width="39.04" height="1.11" transform="translate(-7.47 59.24) rotate(-7.59)"/><rect class="cls-1" x="295.84" y="17.9" width="375.1" height="1.11" transform="translate(.44 46.09) rotate(-5.46)"/><rect class="cls-1" x="-.71" y="178.42" width="331.64" height="1.11" transform="translate(-16.4 16.66) rotate(-5.5)"/></g></svg>