<svg width="90" height="90" viewBox="0 0 90 90" fill="none" xmlns="http://www.w3.org/2000/svg">
<g id="3 internacional 1" clipPath="url(#clip0_414_3229)">
<g id="Capa_1-2">
<path id="Vector" d="M82.131 7.86629H7.86664V82.1306H82.131V7.86629Z" fill="white"/>
<path id="Vector_2" d="M89.1892 0.810921H0.810974V89.1891H89.1892V0.810921Z" stroke="white" stroke-width="2" strokeMiterlimit="10"/>
<path id="Vector_3" d="M48.1773 54.3329C48.1773 54.7875 48.165 55.2421 48.1773 55.6936C48.1865 56.0284 48.0422 56.1513 47.7197 56.1267C47.0501 56.0776 46.3805 56.0407 45.7109 56.0039C45.3085 55.9824 45.1457 55.795 45.1518 55.3803C45.1703 54.1271 45.158 52.8739 45.158 51.6207C45.158 50.3675 45.1672 49.1512 45.1518 47.9164C45.1457 47.5018 45.2839 47.3359 45.717 47.3359C48.205 47.3482 50.6929 47.3513 53.1778 47.3359C53.6079 47.3359 53.7676 47.4803 53.7307 47.9072C53.6109 49.3171 53.5219 50.7269 53.2976 52.1275C53.2454 52.4593 53.0611 52.5545 52.7816 52.5637H55.9607C55.6812 52.5361 55.5675 52.4193 55.6289 52.02C55.8255 50.6931 55.9883 49.3631 55.9914 48.0178C55.9914 47.5325 56.1818 47.3113 56.7163 47.3298C57.8036 47.3666 58.894 47.342 59.9814 47.342C61.1056 47.342 62.2297 47.3482 63.357 47.339C63.7133 47.3359 63.913 47.425 63.8607 47.8335C63.6857 49.2372 63.4676 50.6317 63.0529 51.9893C62.9454 52.3364 62.7949 52.5207 62.4724 52.5637H65.9218C65.329 52.5545 65.3105 52.49 65.4764 51.8603C66.2596 48.8901 66.4532 45.88 65.9709 42.8453C64.3307 32.491 55.8747 24.6892 45.4897 23.9889C40.8301 23.6756 36.4777 24.7537 32.4663 27.1649C32.1407 27.3615 31.9595 27.4383 31.9533 26.9438C31.9502 26.655 31.9011 26.3663 31.8581 26.0776C31.2376 22.1613 28.1261 19.0468 24.216 18.4263C20.2814 17.7997 16.3743 19.8177 14.5682 23.39C14.1198 24.2746 13.8679 25.2145 13.6498 26.1728V29.1154C13.9509 30.946 14.5713 32.6538 15.5511 34.2357C17.0286 36.6253 18.8408 38.7539 20.6561 40.8825C20.9417 41.2173 21.2919 41.4938 21.7035 41.6443C22.1028 41.7917 22.1519 42.0313 22.0844 42.406C21.6697 44.7312 21.6206 47.0687 22.0014 49.3969C23.2208 56.8332 27.1801 62.3589 33.8116 65.8943C38.1087 68.1857 42.7284 68.8676 47.5446 68.0874C47.9869 68.0168 48.1589 68.1273 48.1804 68.5174V54.0565C48.1773 54.1394 48.1743 54.2254 48.1743 54.3206L48.1773 54.3329ZM59.45 33.6121C61.8704 36.6561 63.3601 40.0901 63.7717 43.9725C63.8822 45.0138 63.8669 45.0169 62.8287 45.0169C61.8673 45.0169 60.9028 45.0169 59.9414 45.0169C58.8879 45.0169 57.8343 45.0169 56.7808 45.0169C56.0651 45.0169 56.0068 44.9708 55.9883 44.1906C55.9545 42.4429 55.7242 40.7197 55.4232 39.0027C55.2174 37.8417 54.9686 36.6868 54.603 35.5626C54.4648 35.1295 54.5662 34.9575 54.9993 34.8346C56.2617 34.4845 57.478 34.0053 58.6575 33.4371C58.9954 33.2743 59.2135 33.3173 59.45 33.6121ZM57.1586 31.2409C57.4105 31.4651 57.3122 31.5358 57.0757 31.6371C56.0897 32.0548 55.0853 32.4204 54.0563 32.7152C53.8075 32.7859 53.6509 32.7613 53.5403 32.4972C52.7939 30.7003 51.8509 29.014 50.653 27.4598C53.0857 28.2891 55.2481 29.5454 57.1555 31.2378L57.1586 31.2409ZM45.161 27.0205C45.161 26.4185 45.2133 26.3847 45.7877 26.612C47.1115 27.1342 48.1159 28.0649 48.9913 29.1522C49.9066 30.2918 50.6008 31.5634 51.209 32.8842C51.341 33.1729 51.3902 33.3818 50.9632 33.4616C49.1602 33.8026 47.3388 33.9684 45.5112 34.0698C45.1303 34.0913 45.161 33.8364 45.161 33.6029C45.158 32.4787 45.161 31.3545 45.161 30.2273C45.161 29.1584 45.158 28.0864 45.161 27.0175V27.0205ZM45.6586 36.3489C47.6951 36.3243 49.71 36.0571 51.7035 35.6639C52.1458 35.5779 52.284 35.7223 52.3915 36.097C53.058 38.4253 53.4727 40.7935 53.6355 43.2108C53.6662 43.6623 53.6969 44.1169 53.7338 44.5684C53.7614 44.9001 53.614 45.0199 53.2884 45.0169C50.7452 45.0107 48.205 45.0076 45.6617 45.0169C45.2778 45.0169 45.1549 44.8602 45.158 44.4947C45.1703 43.2231 45.161 41.9514 45.161 40.6829C45.161 39.4143 45.1672 38.1396 45.158 36.8711C45.158 36.5086 45.2716 36.352 45.6586 36.3458V36.3489ZM42.8359 40.7197C42.8359 41.9729 42.8236 43.2261 42.842 44.4763C42.8482 44.8725 42.7192 45.0199 42.3106 45.0199C39.8073 45.0076 37.3009 45.0046 34.7945 45.0199C34.3368 45.0199 34.2508 44.8172 34.2662 44.421C34.3676 41.5613 34.8099 38.757 35.6023 36.008C35.7037 35.6517 35.8665 35.5779 36.232 35.6486C38.2439 36.0417 40.2742 36.3274 42.3291 36.3428C42.756 36.3458 42.8451 36.5301 42.8389 36.9049C42.8236 38.1765 42.8328 39.445 42.8328 40.7167L42.8359 40.7197ZM40.6551 27.4874C41.1312 27.1158 41.6533 26.824 42.2062 26.5967C42.7837 26.3602 42.8328 26.397 42.8359 27.0513C42.8359 28.1202 42.8359 29.1921 42.8359 30.261C42.8359 31.3668 42.8236 32.4757 42.842 33.5814C42.8482 33.9869 42.7314 34.0944 42.3045 34.0698C40.5291 33.9623 38.766 33.7934 37.0153 33.4708C36.6682 33.4063 36.5822 33.2743 36.7265 32.961C37.6787 30.8815 38.8121 28.9341 40.652 27.4905L40.6551 27.4874ZM31.3359 31.4221C31.4864 30.8385 31.7629 30.3901 32.282 30.0338C33.7256 29.0386 35.2399 28.1908 36.877 27.5642C37.006 27.5151 37.1412 27.4874 37.4115 27.4106C36.7081 28.3229 36.1245 29.1461 35.63 30.0338C35.1938 30.8109 34.7976 31.6064 34.4628 32.4326C34.3461 32.7214 34.2078 32.8197 33.8884 32.7214C33.1051 32.4818 32.3373 32.2146 31.5724 31.9197C31.3175 31.8214 31.2684 31.6893 31.3359 31.4221ZM22.1734 39.1287C20.5056 37.1598 18.8346 35.194 17.4832 32.9855C16.488 31.3545 15.9259 29.5914 15.8798 27.6779C15.8061 24.7476 17.6982 22.02 20.4656 21.0371C23.2976 20.0327 26.4061 20.9511 28.2336 23.3255C29.2258 24.6124 29.6896 26.0684 29.6588 27.7362C29.6803 30.1873 28.6299 32.2914 27.2446 34.2787C26.059 35.9803 24.7228 37.5622 23.3867 39.144C22.8983 39.7215 22.668 39.7123 22.1765 39.1317L22.1734 39.1287ZM24.1423 44.4363C24.2467 43.3674 24.4034 42.3139 24.6768 41.2726C24.7259 41.0853 24.8426 40.9562 24.9594 40.818C26.7746 38.714 28.5654 36.5885 30.0213 34.2049C30.1687 33.9623 30.3069 33.8855 30.5895 33.993C31.4035 34.3002 32.2267 34.5889 33.056 34.8561C33.4154 34.9728 33.4799 35.1448 33.3754 35.5011C32.5093 38.4406 32.067 41.4508 31.9502 44.5101C31.9349 44.8848 31.812 45.023 31.4342 45.0169C30.2885 45.0015 29.1459 45.0107 28.0002 45.0107C26.9098 45.0107 25.8194 44.9954 24.729 45.0169C24.2898 45.0261 24.0932 44.8971 24.1392 44.4302L24.1423 44.4363ZM28.5254 58.7345C26.3784 56.0653 24.9778 53.0552 24.3727 49.6795C24.2775 49.1451 24.2007 48.6045 24.1577 48.0639C24.1024 47.3758 24.1423 47.3482 24.815 47.3451C25.9054 47.3451 26.9927 47.3451 28.0831 47.3451C29.1889 47.3451 30.2977 47.3574 31.4035 47.339C31.7967 47.3328 31.938 47.468 31.9533 47.8703C32.0731 50.8897 32.497 53.863 33.3632 56.7625C33.4922 57.1956 33.4 57.3861 32.97 57.5089C31.7107 57.8652 30.4912 58.3352 29.3148 58.9065C28.9677 59.0754 28.762 59.0201 28.5285 58.7314L28.5254 58.7345ZM34.0543 63.437C32.9147 62.7951 31.8673 62.018 30.8752 61.1641C30.6049 60.9337 30.6264 60.817 30.9428 60.6849C31.9134 60.2826 32.9024 59.9293 33.9099 59.6252C34.128 59.5607 34.3031 59.5638 34.4044 59.8003C35.1754 61.6003 36.0969 63.3142 37.3193 64.8745C36.1491 64.552 35.0894 64.0176 34.0543 63.434V63.437ZM42.8389 62.1224C42.8389 63.2282 42.8267 64.3339 42.8451 65.4397C42.8512 65.8605 42.7192 65.9465 42.3352 65.8022C41.168 65.3629 40.222 64.6135 39.4049 63.6951C38.2869 62.4388 37.4606 60.9921 36.7572 59.4686C36.576 59.0724 36.6682 58.9495 37.0859 58.8696C38.7968 58.541 40.5291 58.4058 42.2646 58.2645C42.7314 58.2277 42.8543 58.4181 42.8451 58.8573C42.8205 59.9447 42.8359 61.032 42.8359 62.1224H42.8389ZM42.2584 55.9885C40.1698 56.0499 38.0995 56.3141 36.0508 56.7165C35.7191 56.781 35.6883 56.566 35.6238 56.3632C35.1692 54.8674 34.8437 53.3408 34.6225 51.7958C34.4382 50.5027 34.2908 49.2065 34.2693 47.8949C34.2631 47.5018 34.3891 47.342 34.7976 47.342C37.304 47.3543 39.8104 47.3543 42.3168 47.342C42.7253 47.342 42.8512 47.4956 42.8482 47.8888C42.8297 49.142 42.842 50.3952 42.842 51.6484C42.842 52.8647 42.8236 54.0811 42.8512 55.2974C42.8604 55.752 42.7314 55.9731 42.2584 55.9854V55.9885ZM47.7166 65.7438C47.0347 65.8298 46.3528 65.9373 45.6709 66.0387C45.2808 66.097 45.158 65.9158 45.161 65.5472C45.1733 64.423 45.1641 63.2958 45.1641 62.1716C45.1641 61.0812 45.1825 59.9938 45.1549 58.9034C45.1426 58.3997 45.3085 58.2154 45.8153 58.2799C46.445 58.3597 47.0777 58.3905 47.7104 58.4365C48.033 58.4611 48.1896 58.5932 48.1865 58.9464C48.1743 61.0351 48.1773 63.1207 48.1865 65.2093C48.1865 65.5472 48.0483 65.7008 47.7166 65.7407V65.7438Z" fill="#313131"/>
<path id="Vector_4" d="M22.1771 39.1349C20.5093 37.166 18.8384 35.2033 17.4869 32.9918C16.4917 31.3608 15.9296 29.5977 15.8835 27.6841C15.8098 24.7538 17.7019 22.0263 20.4694 21.0434C23.3013 20.039 26.4098 20.9574 28.2373 23.3317C29.2295 24.6187 29.6933 26.0746 29.6626 27.7425C29.6626 27.893 29.6503 28.0373 29.6411 28.1848L31.6099 25.0395C30.6424 21.6331 27.7705 19.0069 24.2228 18.4448C20.2881 17.8213 16.3811 19.8362 14.575 23.4085C14.1266 24.2931 13.8747 25.2361 13.6566 26.1913V29.1339C13.9576 30.9645 14.5781 32.6723 15.5579 34.2542C17.0353 36.6439 18.8476 38.7725 20.6629 40.9011C20.8533 41.1222 21.0806 41.3034 21.3263 41.4539L22.558 39.4851C22.4444 39.4144 22.3215 39.3069 22.1741 39.1349H22.1771Z" fill="#DA1730"/>
<path id="Vector_5" d="M24.1365 41.5645C24.3116 41.4785 24.5941 41.2174 24.9289 40.8642C24.9412 40.8519 24.9504 40.8396 24.9597 40.8243C25.8258 39.8199 26.6828 38.8093 27.5029 37.7711C27.5951 37.6514 27.6841 37.5408 27.764 37.4333C28.0742 37.037 28.3752 36.6316 28.667 36.2231C28.7991 36.0388 28.925 35.8606 29.0479 35.6825C29.2383 35.406 29.4196 35.1235 29.6008 34.8439C31.6587 31.5604 32.1103 28.9895 32.0673 27.3063C31.9997 27.2695 31.9567 27.1773 31.9536 26.9592C31.9505 26.6705 31.9014 26.3818 31.8584 26.093C31.8 25.7306 31.7017 25.3835 31.6035 25.0364L29.6346 28.1817C29.5332 30.4455 28.5411 32.4174 27.2418 34.2818C26.0562 35.9835 24.7201 37.5653 23.3839 39.1472C23.043 39.5527 22.8249 39.6509 22.5577 39.4851L21.326 41.454C21.4304 41.5185 21.5349 41.583 21.6485 41.629C22.8618 42.1512 24.1395 41.5645 24.1395 41.5645H24.1365Z" fill="#DA1730"/>
<path id="Vector_6" d="M48.1798 72.5812C48.1798 72.5812 48.1798 72.6027 48.1798 72.6119V69.1011C48.1646 70.2622 48.1707 71.4202 48.1798 72.5812Z" fill="#DA1730"/>
<path id="Vector_7" d="M22.7609 23.2763C20.4388 23.2794 18.5313 25.193 18.5283 27.5151C18.5283 29.8218 20.4603 31.7631 22.7609 31.7661C25.0953 31.7661 26.9843 29.8802 26.9904 27.5396C26.9966 25.1469 25.1352 23.2732 22.7578 23.2763H22.7609ZM22.7762 29.4348C21.6674 29.4348 20.8596 28.6239 20.8596 27.512C20.8596 26.4308 21.7012 25.5738 22.7762 25.5708C23.8052 25.5646 24.7175 26.4769 24.7267 27.5181C24.7359 28.5748 23.8574 29.4379 22.7762 29.4348Z" fill="#DA1730"/>
<path id="Vector_8" d="M56.1417 52.5788C56.9004 52.5728 57.6591 52.5728 58.4177 52.5697H55.9636C56.0189 52.5758 56.0772 52.5788 56.1417 52.5788Z" fill="#313131"/>
<path id="Vector_9" d="M62.2915 52.5819C62.356 52.5819 62.4143 52.5788 62.4696 52.5697H59.8281C60.6482 52.5697 61.4714 52.5697 62.2915 52.5819Z" fill="#313131"/>
<path id="Vector_10" d="M48.184 68.5328V69.101C48.184 68.9536 48.184 68.8062 48.1871 68.6587C48.1871 68.6126 48.1871 68.5727 48.184 68.5328Z" fill="#313131"/>
<path id="Vector_11" d="M61.5607 62.5095C61.5607 62.5095 63.3269 62.6201 63.4497 61.5665C63.4743 61.3515 63.4712 61.1303 63.4712 60.9123C63.4712 59.097 63.4804 57.2786 63.4681 55.4633C63.4681 55.0517 63.5849 54.8705 64.0272 54.8828C64.9333 54.9074 65.8425 54.9043 66.7516 54.8828C67.1325 54.8736 67.2554 55.0149 67.2554 55.3927C67.2462 60.6235 67.2462 65.8575 67.2554 71.0884C67.2554 71.4877 67.1294 71.6382 66.724 71.632C65.7995 71.6136 64.8718 71.6259 63.9442 71.629C63.5296 71.629 63.1456 71.7242 62.8784 72.0713C62.605 72.4276 62.5129 72.8146 62.7125 73.2446C62.949 73.7514 63.3729 73.9511 63.9012 73.9541C65.2988 73.9634 66.6994 73.9634 68.097 73.9541C69.0953 73.948 69.5038 73.5241 69.5038 72.5136C69.5038 66.3551 69.5038 60.1966 69.5038 54.0381C69.5038 53.0276 69.1168 52.6129 68.1031 52.5822C67.839 52.573 67.5718 52.573 67.3045 52.573H66.8161H66.6564C66.4476 52.573 66.2387 52.573 66.0298 52.573C65.9868 52.573 65.9561 52.573 65.9193 52.573H62.4699C62.4146 52.5791 62.3562 52.5852 62.2917 52.5852C61.4716 52.576 60.6484 52.576 59.8283 52.573H58.4185C57.6598 52.573 56.9011 52.576 56.1425 52.5822C56.0749 52.5822 56.0165 52.5822 55.9643 52.573H52.7852C52.7668 52.573 52.7514 52.573 52.733 52.573C51.8085 52.573 50.8809 52.573 49.9563 52.573C48.6202 52.5791 48.2301 52.8801 48.184 54.0719V68.5328C48.184 68.5728 48.1871 68.6127 48.1871 68.6588C48.1871 68.8062 48.1871 68.9536 48.184 69.1011V72.6119C48.1994 73.475 48.6448 73.9357 49.5171 73.948C50.9331 73.9664 52.3521 73.9634 53.7681 73.948C54.5606 73.9388 55.0889 73.4627 55.0981 72.7992C55.1073 72.1204 54.5637 71.6382 53.7405 71.6259C52.8866 71.6136 52.0327 71.5952 51.1788 71.632C50.6536 71.6535 50.4908 71.4723 50.4969 70.9501C50.5184 68.152 50.5061 65.3538 50.5061 62.5586C50.5061 60.215 50.5184 57.8714 50.4969 55.5278C50.4938 55.0271 50.6505 54.8582 51.1542 54.8797C51.9897 54.9166 52.8252 54.9135 53.6606 54.8797C54.1306 54.8613 54.2934 55.0026 54.2872 55.491C54.2627 57.4537 54.2749 59.4133 54.278 61.3761C54.2811 62.5986 56.2192 62.4634 56.2192 62.4634M56.594 60.4362C56.594 59.1461 56.594 56.5629 56.594 55.2729C56.594 55.0026 56.7353 54.8859 57.0025 54.8859C58.2557 54.8889 59.5089 54.892 60.7621 54.8859C61.0938 54.8859 61.1491 55.0732 61.146 55.3435C61.1399 55.9793 61.146 56.6151 61.146 57.251C61.146 57.8499 61.1368 59.8587 61.1491 60.4577" fill="#DA1730"/>
<path id="Vector_12" d="M58.8602 71.6382C58.2735 71.632 57.7022 72.191 57.6991 72.7808C57.696 73.3675 58.2581 73.9326 58.8479 73.9357C59.453 73.9357 59.9966 73.4012 60.0028 72.7931C60.0059 72.188 59.4683 71.6443 58.8632 71.6382H58.8602Z" fill="#DA1730"/>
</g>
</g>
<defs>
<clipPath id="clip0_414_3229">
<rect width="90" height="90" fill="white"/>
</clipPath>
</defs>
</svg>
